<?xml version="1.0" encoding="UTF-8"?>
<svg id="Layer_1" data-name="Layer 1" xmlns="http://www.w3.org/2000/svg" viewBox="0 0 1920 1080">
  <defs>
    <style>
      .cls-1 {
        fill: #b3b3b3;
      }

      .cls-2 {
        fill: #215095;
      }
    </style>
  </defs>
  <path class="cls-2" d="M942.11,409.24v263.33c0,7.03-5.7,12.73-12.73,12.73h-25.03c-7.03,0-12.73-5.7-12.73-12.73v-263.33c0-7.04,5.71-12.75,12.75-12.75h24.98c7.04,0,12.75,5.71,12.75,12.75Z"/>
  <path class="cls-1" d="M842.51,588.63c-3.18-5.91-9.54-9.41-16.25-9.42l-18.63-.03c-.29,0-.58.03-.87.04h-69.71c-13.78,0-19.38-5.17-19.38-14.21,0-5.6,1.72-9.48,5.17-13.35,0,0,77.95-78.55,107.91-115.38,5.05-6.21,5.3-15.02.6-21.5l-7.89-10.88c-6.46-8.91-19.41-9.8-27.02-1.84-31.69,33.14-117.53,125.05-117.53,125.05-.68.82-1.34,1.63-2,2.44v82.65c10.7,8.05,27.22,12.24,51.09,12.24h65.14v46.64c0,7.85,6.49,14.21,14.49,14.21h21.84c8,0,14.49-6.36,14.49-14.21v-77.7c0-1.51-.58-3.15-1.45-4.76Z"/>
  <path class="cls-2" d="M1016.4,417.26l-15.68,45.5c-.76,2.26-2.53,3.72-4.99,3.72-2.98,0-5.16-2.02-5.16-4.85,0-.9.22-1.79.51-2.57l17.13-45.45c1.42-3.8,3.17-6.62,7.56-6.62,4.68,0,6.37,2.88,7.57,6.45l15.77,44.98c.36,1.08.48,1.9.48,2.62,0,3.12-2.56,5.44-5.73,5.44-2.77,0-4.74-1.72-5.43-4.07l-14.48-46.16,2.45,1.03ZM999.56,453.17l1.85-8.73h26.46l2.12,8.73h-30.43Z"/>
  <path class="cls-2" d="M1061.24,461.02c0,3-2.23,5.42-5.38,5.42s-5.38-2.42-5.38-5.42v-48.77c0-3,2.24-5.42,5.38-5.42s5.38,2.42,5.38,5.42v48.77Z"/>
  <path class="cls-2" d="M1108.25,461.02c0,3-2.23,5.42-5.38,5.42s-5.38-2.42-5.38-5.42v-48.77c0-3,2.24-5.42,5.38-5.42s5.38,2.42,5.38,5.42v48.77Z"/>
  <path class="cls-2" d="M1131.45,421.9l2.18-1.33.1,23.12v17.28c0,3-1.99,5.42-5.14,5.42s-4.95-2.42-4.95-5.42v-48.73c0-2.66,1.83-5.42,5.52-5.42,2.88,0,4.59,1.39,6.22,3.92l25.98,40.72-2.67.15-.13-23.48v-15.89c0-3,1.8-5.42,4.95-5.42s5.14,2.42,5.14,5.42v48.73c0,2.66-1.9,5.42-5.58,5.42-2.88,0-4.52-1.39-6.15-3.92l-25.46-40.57Z"/>
  <path class="cls-2" d="M1191.88,421.9l2.18-1.33.1,23.12v17.28c0,3-1.99,5.42-5.14,5.42s-4.95-2.42-4.95-5.42v-48.73c0-2.66,1.83-5.42,5.52-5.42,2.88,0,4.59,1.39,6.22,3.92l25.98,40.72-2.67.15-.13-23.48v-15.89c0-3,1.8-5.42,4.95-5.42s5.14,2.42,5.14,5.42v48.73c0,2.66-1.9,5.42-5.58,5.42-2.88,0-4.52-1.39-6.15-3.92l-25.46-40.57Z"/>
  <path class="cls-2" d="M1242.39,433.12c0-17.32,9.54-26.29,23.56-26.29s23.64,9.01,23.64,26.29v7.69c0,17.29-9.61,25.83-23.64,25.83s-23.56-8.51-23.56-25.83v-7.69ZM1253.28,441.35c0,10.11,3.58,16.17,12.63,16.17s12.82-6.02,12.82-16.17v-8.76c0-10.35-3.88-16.63-12.82-16.63s-12.63,6.28-12.63,16.63v8.76Z"/>
  <path class="cls-2" d="M1313.27,460.31l-15.18-45.42c-.36-1.08-.48-1.94-.48-2.59,0-3.48,2.56-5.47,5.7-5.47,2.59,0,4.77,1.72,5.47,4.07l13.84,46.19-2.89-.99,14.6-45.55c.69-2.21,2.51-3.72,5.19-3.72,3.08,0,5.25,1.94,5.25,4.83,0,.9-.22,1.86-.47,2.59l-16.28,46.01c-1.24,3.57-2.93,6.17-7.51,6.17-3.81,0-5.95-2.25-7.23-6.13Z"/>
  <path class="cls-2" d="M1372.49,417.26l-15.68,45.5c-.76,2.26-2.53,3.72-4.99,3.72-2.98,0-5.16-2.02-5.16-4.85,0-.9.22-1.79.51-2.57l17.13-45.45c1.42-3.8,3.17-6.62,7.56-6.62,4.68,0,6.37,2.88,7.57,6.45l15.77,44.98c.36,1.08.48,1.9.48,2.62,0,3.12-2.56,5.44-5.73,5.44-2.77,0-4.74-1.72-5.43-4.07l-14.48-46.16,2.45,1.03ZM1355.65,453.17l1.85-8.73h26.46l2.12,8.73h-30.43Z"/>
  <path class="cls-2" d="M1400.11,417.19c-2.52,0-4.57-2.11-4.57-4.64s2.05-4.65,4.57-4.65h36.49c2.52,0,4.57,2.11,4.57,4.65s-2.05,4.64-4.57,4.64h-36.49ZM1423.9,460.97c0,3-2.23,5.42-5.38,5.42s-5.38-2.42-5.38-5.42v-49.23h10.77v49.23Z"/>
  <path class="cls-2" d="M1461.76,461.02c0,3-2.23,5.42-5.38,5.42s-5.38-2.42-5.38-5.42v-48.77c0-3,2.24-5.42,5.38-5.42s5.38,2.42,5.38,5.42v48.77Z"/>
  <path class="cls-2" d="M1475.03,433.12c0-17.32,9.54-26.29,23.56-26.29s23.64,9.01,23.64,26.29v7.69c0,17.29-9.61,25.83-23.64,25.83s-23.56-8.51-23.56-25.83v-7.69ZM1485.92,441.35c0,10.11,3.58,16.17,12.63,16.17s12.82-6.02,12.82-16.17v-8.76c0-10.35-3.88-16.63-12.82-16.63s-12.63,6.28-12.63,16.63v8.76Z"/>
  <path class="cls-2" d="M1543.34,421.9l2.18-1.33.1,23.12v17.28c0,3-1.99,5.42-5.14,5.42s-4.95-2.42-4.95-5.42v-48.73c0-2.66,1.83-5.42,5.52-5.42,2.88,0,4.59,1.39,6.22,3.92l25.98,40.72-2.67.15-.13-23.48v-15.89c0-3,1.8-5.42,4.95-5.42s5.14,2.42,5.14,5.42v48.73c0,2.66-1.9,5.42-5.58,5.42-2.88,0-4.52-1.39-6.15-3.92l-25.46-40.57Z"/>
  <path class="cls-2" d="M1036.8,542c2.67,0,4.9,2.17,4.9,4.85,0,5.86-2.3,11.6-6.06,16.29l4.34,4.56c.54.61,1.08,1.63,1.08,2.96,0,2.51-2.06,4.54-4.56,4.54-1.25,0-2.34-.55-3.28-1.49l-4.31-4.41c-4.83,3.5-10.71,5.55-16.85,5.55-10.88,0-18.93-5.11-18.93-15.61,0-5.51,2.72-10.65,8.63-14l2.39-1.41-1.47-1.56c-4.23-4.67-5.81-8.29-5.81-12.65,0-9.55,8.42-14.59,17.36-14.59,10.58,0,16.85,5.38,16.85,13.54,0,5.39-3.51,10.14-10.31,14.15l-2.86,1.77,11.52,12.08c1.63-2.97,2.62-6.35,2.62-10,0-2.69,2.07-4.58,4.75-4.58ZM1022.97,563.18l-13.43-13.79c-.54.35-1.11.69-1.65,1.03-2.68,1.83-4.37,4.72-4.37,7.88,0,4.32,3.57,7.91,9.84,7.91,3.6,0,6.91-1.09,9.61-3.04ZM1010.81,536.94l1.95,2.09,2.64-1.57c3.38-1.93,5.59-4.77,5.59-8.17,0-4.64-3.1-6.3-7.05-6.3-4.49,0-7.01,2.54-7.01,6.2,0,2.22.98,4.4,3.87,7.76Z"/>
  <path class="cls-2" d="M1085.28,569.23c0,3-2.23,5.42-5.38,5.42s-5.38-2.42-5.38-5.42v-48.77c0-3,2.24-5.42,5.38-5.42s5.38,2.42,5.38,5.42v48.77Z"/>
  <path class="cls-2" d="M1108.47,530.11l2.18-1.33.1,23.12v17.28c0,3-1.99,5.42-5.14,5.42s-4.95-2.42-4.95-5.42v-48.73c0-2.66,1.83-5.42,5.52-5.42,2.88,0,4.59,1.39,6.22,3.92l25.98,40.72-2.67.15-.13-23.48v-15.89c0-3,1.8-5.42,4.95-5.42s5.14,2.42,5.14,5.42v48.73c0,2.66-1.9,5.42-5.58,5.42-2.88,0-4.52-1.39-6.15-3.93l-25.46-40.57Z"/>
  <path class="cls-2" d="M1158.86,541.67c0-17.32,10.45-26.63,24.31-26.63,3.96,0,9.68.7,13.27,2.63,2.05,1.07,3.48,2.62,3.48,4.73,0,2.5-1.83,4.6-4.45,4.6-.9,0-1.55-.25-2.41-.57-1.97-.7-4.44-1.89-8.65-1.89-8.93,0-14.65,5.41-14.65,16.59v8.09c0,11.82,6.06,16.13,14.45,16.13,4.58,0,7.05-1.25,9.1-1.9.85-.28,1.49-.39,2.22-.39,2.49,0,4.28,2.01,4.28,4.51,0,1.75-.98,3.13-2.51,4.17-3.27,2.2-9.23,3.11-13.98,3.11-14.16,0-24.45-8.85-24.45-26.17v-7.02Z"/>
  <path class="cls-2" d="M1210.85,520.43c0-3,2.24-5.42,5.38-5.42s5.38,2.42,5.38,5.42v53.29h-5.38c-2.98,0-5.38-2.42-5.38-5.42v-47.87ZM1240.5,564.55c2.52,0,4.57,2.06,4.57,4.6s-2.05,4.57-4.57,4.57h-22.95l-.1-9.17h23.05Z"/>
  <path class="cls-2" d="M1287.68,520.46c0-2.97,2.24-5.42,5.38-5.42s5.38,2.42,5.38,5.42v29.24c0,17.32-9.12,25.16-23.15,25.16s-22.87-7.84-22.87-25.16v-29.24c0-3,2.31-5.42,5.46-5.42s5.38,2.42,5.38,5.42v28.76c0,11.22,3.48,16.2,12.1,16.2,7.83,0,12.31-4.18,12.31-16.2v-28.76Z"/>
  <path class="cls-2" d="M1313.16,563.24c.67-.54,1.58-.86,2.53-.86,2.48,0,6.77,3.05,13.52,3.05,7.58,0,11.36-2.72,11.36-8.45,0-4.67-2.7-6.54-9.7-7.41l-5.69-.76c-9.66-1.28-14.51-7.09-14.51-16.04,0-12.19,9.46-17.61,21.28-17.61,4.61,0,11.43.99,14.91,3.59,1.34.96,2.22,2.23,2.22,3.99,0,2.59-1.92,4.56-4.4,4.56-.79,0-1.69-.31-2.72-.7-2.39-.85-5.48-2.26-9.74-2.26-7.18,0-10.9,2.39-10.9,7.95,0,4.78,2.7,6.64,8.85,7.39l5.33.69c10.24,1.31,15.84,6.88,15.84,16.31,0,12.64-9.92,17.98-22.71,17.98-4.52,0-10.98-.91-14.59-3.29-1.72-1.12-2.79-2.56-2.79-4.39,0-1.55.74-2.96,1.92-3.74Z"/>
  <path class="cls-2" d="M1374.33,569.23c0,3-2.23,5.42-5.38,5.42s-5.38-2.42-5.38-5.42v-48.77c0-3,2.24-5.42,5.38-5.42s5.38,2.42,5.38,5.42v48.77Z"/>
  <path class="cls-2" d="M1387.6,541.34c0-17.32,9.54-26.29,23.56-26.29s23.64,9.01,23.64,26.29v7.69c0,17.29-9.61,25.83-23.64,25.83s-23.56-8.51-23.56-25.83v-7.69ZM1398.49,549.56c0,10.11,3.58,16.17,12.63,16.17s12.82-6.02,12.82-16.17v-8.76c0-10.35-3.88-16.63-12.82-16.63s-12.63,6.28-12.63,16.63v8.76Z"/>
  <path class="cls-2" d="M1455.92,530.11l2.18-1.33.1,23.12v17.28c0,3-1.99,5.42-5.14,5.42s-4.95-2.42-4.95-5.42v-48.73c0-2.66,1.83-5.42,5.52-5.42,2.88,0,4.59,1.39,6.22,3.92l25.98,40.72-2.67.15-.13-23.48v-15.89c0-3,1.8-5.42,4.95-5.42s5.14,2.42,5.14,5.42v48.73c0,2.66-1.9,5.42-5.58,5.42-2.88,0-4.52-1.39-6.15-3.93l-25.46-40.57Z"/>
  <path class="cls-2" d="M1006.72,677.45c0,3-2.23,5.42-5.38,5.42s-5.38-2.42-5.38-5.42v-48.77c0-3,2.24-5.42,5.38-5.42s5.38,2.42,5.38,5.42v48.77Z"/>
  <path class="cls-2" d="M1029.92,638.33l2.18-1.33.1,23.12v17.28c0,3-1.99,5.42-5.14,5.42s-4.95-2.42-4.95-5.42v-48.73c0-2.66,1.83-5.42,5.52-5.42,2.88,0,4.59,1.39,6.22,3.93l25.98,40.72-2.67.15-.13-23.48v-15.89c0-3,1.8-5.42,4.95-5.42s5.14,2.42,5.14,5.42v48.73c0,2.67-1.9,5.42-5.58,5.42-2.88,0-4.52-1.39-6.15-3.92l-25.46-40.57Z"/>
  <path class="cls-2" d="M1093.32,677.45c0,3-2.23,5.42-5.38,5.42s-5.38-2.42-5.38-5.42v-48.77c0-3,2.24-5.42,5.38-5.42s5.38,2.42,5.38,5.42v48.77Z"/>
  <path class="cls-2" d="M1107.65,633.62c-2.52,0-4.57-2.11-4.57-4.64s2.05-4.65,4.57-4.65h36.49c2.52,0,4.57,2.11,4.57,4.65s-2.05,4.64-4.57,4.64h-36.49ZM1131.43,677.4c0,3-2.23,5.42-5.38,5.42s-5.38-2.42-5.38-5.42v-49.23h10.77v49.23Z"/>
  <path class="cls-2" d="M1169.29,677.45c0,3-2.23,5.42-5.38,5.42s-5.38-2.42-5.38-5.42v-48.77c0-3,2.24-5.42,5.38-5.42s5.38,2.42,5.38,5.42v48.77Z"/>
  <path class="cls-2" d="M1205.14,633.69l-15.68,45.5c-.76,2.26-2.53,3.72-4.99,3.72-2.98,0-5.16-2.02-5.16-4.85,0-.9.22-1.79.51-2.57l17.13-45.45c1.42-3.8,3.17-6.62,7.56-6.62,4.68,0,6.37,2.88,7.57,6.45l15.77,44.98c.36,1.08.48,1.9.48,2.62,0,3.12-2.56,5.44-5.73,5.44-2.77,0-4.74-1.72-5.43-4.07l-14.48-46.16,2.45,1.02ZM1188.3,669.6l1.85-8.73h26.46l2.12,8.73h-30.43Z"/>
  <path class="cls-2" d="M1232.76,633.62c-2.52,0-4.57-2.11-4.57-4.64s2.05-4.65,4.57-4.65h36.49c2.52,0,4.57,2.11,4.57,4.65s-2.05,4.64-4.57,4.64h-36.49ZM1256.55,677.4c0,3-2.23,5.42-5.38,5.42s-5.38-2.42-5.38-5.42v-49.23h10.77v49.23Z"/>
  <path class="cls-2" d="M1294.41,677.45c0,3-2.23,5.42-5.38,5.42s-5.38-2.42-5.38-5.42v-48.77c0-3,2.24-5.42,5.38-5.42s5.38,2.42,5.38,5.42v48.77Z"/>
  <path class="cls-2" d="M1321.16,676.74l-15.18-45.42c-.36-1.08-.48-1.94-.48-2.59,0-3.48,2.56-5.47,5.7-5.47,2.59,0,4.77,1.72,5.47,4.07l13.84,46.19-2.89-.99,14.6-45.55c.69-2.21,2.51-3.72,5.19-3.72,3.08,0,5.25,1.95,5.25,4.83,0,.9-.22,1.86-.47,2.6l-16.28,46.01c-1.24,3.57-2.93,6.17-7.51,6.17-3.81,0-5.95-2.25-7.23-6.13Z"/>
  <path class="cls-2" d="M1373.95,676.52l-5.38,5.42c-2.98,0-5.38-2.42-5.38-5.42v-46.77c0-3,2.4-5.42,5.38-5.42l5.38,2.09v50.09ZM1393.26,648.19c2.56,0,4.57,1.95,4.57,4.48s-2.05,4.6-4.57,4.6h-25.47l.1-9.08h25.37ZM1368.47,633.49l.1-9.16h27.12c2.52,0,4.57,2.03,4.57,4.56s-2.05,4.6-4.57,4.6h-27.22ZM1395.77,672.77c2.52,0,4.57,2.03,4.57,4.57s-2.05,4.6-4.57,4.6h-27.2l.1-9.17h27.1Z"/>
  <path class="cls-2" d="M613.99,394.59h-8.99c-37.04,0-52.59,11.73-71.79,34.29l-192.68,237.26c-6.13,7.58-.66,18.78,9.16,18.78h36.54c4.73,0,9.2-2.14,12.13-5.8l176.46-218.21c8.52-9.74,13.99-12.96,27.14-13.07,9.37.12,13.4,5.51,13.4,14.88v116.13h-95.61c-7.03,0-12.73,5.7-12.73,12.73v19.29c0,7.03,5.7,12.73,12.73,12.73h95.61v47.27c0,7.97,6.55,14.43,14.62,14.43h25.17c8.08,0,14.62-6.46,14.62-14.43v-220.78c0-36.1-16.01-55.5-55.79-55.5Z"/>
</svg>